<?xml version="1.0" encoding="UTF-8"?>
<svg viewBox="0 0 50 50" version="1.1" xmlns="http://www.w3.org/2000/svg" xmlns:xlink="http://www.w3.org/1999/xlink">
    <!-- Generator: Sketch 52.5 (67469) - http://www.bohemiancoding.com/sketch -->
    <title>content-icn-network</title>
    <desc>Created with Sketch.</desc>
    <g id="Page-1" stroke="none" stroke-width="1" fill="none" fill-rule="evenodd">
        <g id="content-icn-network">
            <circle id="Oval" fill="#FFFFFF" cx="25" cy="25" r="25"></circle>
            <g id="network" transform="translate(10.000000, 12.000000)" stroke="#333333" stroke-linecap="round" stroke-linejoin="round">
                <path d="M12,23 L1,23 L1,15 L12,15 L12,23 Z M1,23 L0,25 L0,26 L13,26 L13,25 L12,23 L1,23 Z" id="Shape"></path>
                <path d="M20.5,8 L9.5,8 L9.5,0 L20.5,0 L20.5,8 Z M9.5,8 L8.5,10 L8.5,11 L21.5,11 L21.5,10 L20.5,8 L9.5,8 Z M29,23 L18,23 L18,15 L29,15 L29,23 Z M18,23 L17,25 L17,26 L30,26 L30,25 L29,23 L18,23 Z" id="Shape"></path>
                <path d="M5.62821778,15 L15,11 L5.62821778,15 Z M23.5,15 L15.5,11 L23.5,15 Z" id="Combined-Shape"></path>
                <path d="M12,21.5 L18,21.5" id="Line-8"></path>
            </g>
        </g>
    </g>
</svg>