<?xml version="1.0" encoding="UTF-8"?>
<svg viewBox="0 0 50 50" version="1.1" xmlns="http://www.w3.org/2000/svg" xmlns:xlink="http://www.w3.org/1999/xlink">
    <!-- Generator: Sketch 52.5 (67469) - http://www.bohemiancoding.com/sketch -->
    <title>content-icn-security</title>
    <desc>Created with Sketch.</desc>
    <g id="Page-1" stroke="none" stroke-width="1" fill="none" fill-rule="evenodd">
        <g id="content-icn-security">
            <circle id="Oval" fill="#FFFFFF" cx="25" cy="25" r="25"></circle>
            <g id="security" transform="translate(14.000000, 11.000000)" stroke="#333333" stroke-linecap="round" stroke-linejoin="round">
                <path d="M5,14 L5,6.5 C5,2.91014913 7.91014913,6.66133815e-16 11.5,0 C15.0898509,0 18,2.91014913 18,6.5 L18,14" id="Path"></path>
                <path d="M7,14 L7,6.5 C7,4.01471863 9.01471863,2 11.5,2 C13.9852814,2 16,4.01471863 16,6.5 L16,14" id="Path"></path>
                <polygon id="Path" points="0 14 23 14 23 29 0 29"></polygon>
                <path d="M12,22 C12,22.5522847 11.5522847,23 11,23 C10.4477153,23 10,22.5522847 10,22 L10,19 C10,18.4477153 10.4477153,18 11,18 C11.5522847,18 12,18.4477153 12,19 L12,22 Z" id="Path"></path>
            </g>
        </g>
    </g>
</svg>