<?xml version="1.0" encoding="UTF-8"?>
<svg viewBox="0 0 50 50" version="1.1" xmlns="http://www.w3.org/2000/svg" xmlns:xlink="http://www.w3.org/1999/xlink">
    <!-- Generator: Sketch 52.5 (67469) - http://www.bohemiancoding.com/sketch -->
    <title>content-icn-social</title>
    <desc>Created with Sketch.</desc>
    <g id="Page-1" stroke="none" stroke-width="1" fill="none" fill-rule="evenodd">
        <g id="content-icn-social">
            <circle id="Oval" fill="#FFFFFF" cx="25" cy="25" r="25"></circle>
            <g id="social" transform="translate(10.000000, 13.000000)" stroke="#333333" stroke-linecap="round" stroke-linejoin="round">
                <path d="M20,0 L10,0 C4.4771525,8.8817842e-16 6.66133815e-16,4.4771525 0,10 C-6.66133815e-16,15.5228475 4.4771525,20 10,20 L11,20 L11,25 L17,20 L20,20 C25.5228475,20 30,15.5228475 30,10 C30,4.4771525 25.5228475,4.4408921e-15 20,0 Z" id="Path"></path>
                <path d="M20.6642857,10.1285714 C21.1900149,9.25024879 21.4780314,8.25019139 21.5,7.22678571 C21.5000223,6.36695157 21.1568735,5.54266825 20.5467037,4.93685679 C19.9365338,4.33104532 19.1098119,3.99381414 18.25,4 C16.8339286,4 15.4642857,4.90535714 15,6.15892857 C14.5357143,4.90535714 13.1660714,4 11.75,4 C10.8901881,3.99381414 10.0634662,4.33104532 9.45329633,4.93685679 C8.8431265,5.54266825 8.49997775,6.36695157 8.5,7.22678571 C8.5,10.0125 10.8910714,12.8214286 15,15.6071429 C15.2754237,15.452381 15.461138,15.3285714 15.5571429,15.2357143 C15.7011501,15.0964286 20.1385566,11.0068941 20.6642857,10.1285714 Z" id="Path"></path>
            </g>
        </g>
    </g>
</svg>