<?xml version="1.0" encoding="UTF-8"?>
<svg viewBox="0 0 50 50" version="1.1" xmlns="http://www.w3.org/2000/svg" xmlns:xlink="http://www.w3.org/1999/xlink">
    <!-- Generator: Sketch 52.5 (67469) - http://www.bohemiancoding.com/sketch -->
    <title>content-icn-AI</title>
    <desc>Created with Sketch.</desc>
    <g id="Page-1" stroke="none" stroke-width="1" fill="none" fill-rule="evenodd">
        <g id="content-icn-AI">
            <circle id="Oval" fill="#FFFFFF" cx="25" cy="25" r="25"></circle>
            <g id="brain-6342_e08e8908-69f7-4c37-995b-8bec5501ece5" transform="translate(8.000000, 7.000000)" stroke="#202020" stroke-linecap="round" stroke-linejoin="round">
                <path d="M9.6779369,1 C11.0116268,1.2072489 12.0240085,2.30013319 12.1186246,3.63476623 M4.07899932,5.44892705 C8.37277915,6.48118456 7.24396109,10.3163205 7.24396109,10.3163205 M5.40673343,12.7055703 C5.40673343,12.7055703 5.52083558,9.68196897 9.06776498,10.2866892 M0,18.6360621 C2.32353469,15.330661 7.2372492,16.0097619 8.45759305,20.2428038 M5.40673343,22.3810947 C6.62707728,19.9622136 9.6779369,19.3574933 11.5084527,21.7763744 M9.06776498,15.1244514 C11.058756,15.1244514 13.3389685,16.333892 13.3389685,19.3574933 M17,14.5197312 C15.1694842,13.9150109 12.8221528,14.3322679 12.0014716,16.1524759 M12.1186246,6.6583676 C13.9491404,7.26308787 14.5593123,10.2866892 13.3389685,12.1008501 M17,9.68196897 C16.0428571,9.25376745 14.9518526,9.22651254 13.9741574,9.60637894 M2.24177165,29.637738 C4.70381537,29.5016759 6.72897599,27.3736653 6.72897599,25.5685753 M3.57621765,25.4046961 C6.62707728,24.7999758 8.12565952,25.8606552 8.45759305,27.8235772 M14.6685331,27.1051695 C10.3973296,26.5004492 7.45202972,32.210218 11.3809267,36 M12.1186246,23.5905353 C14.5593123,24.1952555 15.7796562,27.8235772 13.3389685,30.2424583 M9.87746312,5.09456097 C10.2090058,4.3340792 10.9101797,3.7946487 11.7357666,3.66492191 C12.5613536,3.53519513 13.3965023,3.83321894 13.9491404,4.45476692" id="Shape"></path>
                <path d="M24.3220631,1 C22.9883732,1.2072489 21.9759915,2.30013319 21.8813754,3.63476623 M29.9210007,5.44892705 C25.6272208,6.48118456 26.7560389,10.3163205 26.7560389,10.3163205 M28.5932666,12.7055703 C28.5932666,12.7055703 28.4791644,9.68196897 24.932235,10.2866892 M34,18.6360621 C31.6764653,15.330661 26.7627508,16.0097619 25.5424069,20.2428038 M28.5932666,22.3810947 C27.3729227,19.9622136 24.3220631,19.3574933 22.4915473,21.7763744 M24.932235,15.1244514 C22.941244,15.1244514 20.6610315,16.333892 20.6610315,19.3574933 M17,14.5197312 C18.8305158,13.9150109 21.1778472,14.3322679 21.9985284,16.1524759 M21.8813754,6.6583676 C20.0508596,7.26308787 19.4406877,10.2866892 20.6610315,12.1008501 M17,9.68196897 C17.9571429,9.25376745 19.0481474,9.22651254 20.0258426,9.60637894 M31.7588385,29.637738 C29.2967948,29.5016759 27.2716342,27.3736653 27.2716342,25.5685753 M30.4237823,25.4046961 C27.3729227,24.7999758 25.8743405,25.8606552 25.5424069,27.8235772 M19.3314669,27.1051695 C23.6026704,26.5004492 26.5479703,32.210218 22.6190733,36 M21.8813754,23.5905353 C19.4406877,24.1952555 18.2203438,27.8235772 20.6610315,30.2424583 M24.1225369,5.09456097 C23.7909942,4.3340792 23.0898203,3.7946487 22.2642334,3.66492191 C21.4386464,3.53519513 20.6034977,3.83321894 20.0508596,4.45476692" id="Shape"></path>
                <path d="M17,0.941787055 C16.9608434,0.941564586 16.9234248,0.92569582 16.8961786,0.897757713 C16.5142857,0.51476275 15.0061429,-0.598033638 10.9285714,0.414641232 C6.04046429,1.62876542 0,7.37972128 0,20.3183165 C0,33.2569117 10.0178571,36 13.3571429,36 C15.8051429,36 16.6223571,35.3504164 16.8834286,35.0048162 C16.9103672,34.9673799 16.9536793,34.9449702 17,34.9445021" id="Path"></path>
                <path d="M23.0714286,0.414656977 C18.9938571,-0.598017445 17.4857143,0.514778451 17.1038214,0.897170103 C17.0766772,0.925330223 17.0392456,0.941421939 17,0.941802567 L17,34.9469151 C17.0463207,34.9473832 17.0896328,34.9697929 17.1165714,35.0072292 C17.3776429,35.3504167 18.1948571,36 20.6428571,36 C23.9821429,36 34,33.2569129 34,20.3183234 C34,7.37973395 27.9595357,1.62878063 23.0714286,0.414656977 Z" id="Path"></path>
            </g>
        </g>
    </g>
</svg>