<?xml version="1.0" encoding="UTF-8"?>
<svg viewBox="0 0 50 50" version="1.1" xmlns="http://www.w3.org/2000/svg" xmlns:xlink="http://www.w3.org/1999/xlink">
    <!-- Generator: Sketch 52.5 (67469) - http://www.bohemiancoding.com/sketch -->
    <title>content-icn-launch</title>
    <desc>Created with Sketch.</desc>
    <g id="Page-1" stroke="none" stroke-width="1" fill="none" fill-rule="evenodd">
        <g id="content-icn-launch">
            <circle id="Oval" fill="#FFFFFF" cx="25" cy="25" r="25"></circle>
            <g id="missile-3238_7212147a-9703-4822-bb10-88b3c0e73ea7-copy" transform="translate(9.000000, 9.000000)" stroke="#333333" stroke-linecap="round" stroke-linejoin="round">
                <path d="M5.21290323,23.8967742 C2.27096774,25.2903226 0.361290323,27.8193548 0.516129032,31.483871 C4.18064516,31.6903226 6.70967742,29.7290323 8.10322581,26.7870968" id="Path"></path>
                <path d="M31.483871,0.516129032 C31.483871,0.516129032 24.5677419,0.15483871 19.8193548,4.90322581 C15.0709677,9.6516129 3.76774194,22.4 3.76774194,22.4 L9.6,28.283871 C9.6,28.283871 22.3483871,16.9290323 27.0967742,12.1806452 C31.8451613,7.43225806 31.483871,0.516129032 31.483871,0.516129032 Z" id="Path"></path>
                <circle id="Oval" cx="22.1935484" cy="9.80645161" r="2.06451613"></circle>
                <path d="M6.50322581,19.3548387 L12.6967742,25.4967742 M12.283871,12.9032258 L5.93548387,12.9032258 L1.96129032,16.8774194 L7.63870968,18.0645161 M18.5806452,20.2322581 L18.5806452,26.5806452 L14.6064516,30.5032258 L13.4193548,24.8774194" id="Shape"></path>
            </g>
        </g>
    </g>
</svg>