<?xml version="1.0" encoding="UTF-8"?>
<svg viewBox="0 0 50 50" version="1.1" xmlns="http://www.w3.org/2000/svg" xmlns:xlink="http://www.w3.org/1999/xlink">
    <!-- Generator: Sketch 52.5 (67469) - http://www.bohemiancoding.com/sketch -->
    <title>content-icn-science</title>
    <desc>Created with Sketch.</desc>
    <g id="Page-1" stroke="none" stroke-width="1" fill="none" fill-rule="evenodd">
        <g id="content-icn-science">
            <circle id="Oval" fill="#FFFFFF" cx="25" cy="25" r="25"></circle>
            <g id="science" transform="translate(12.000000, 8.000000)" stroke="#333333" stroke-linecap="round" stroke-linejoin="round">
                <ellipse id="Oval" cx="12.4450594" cy="10.6130081" rx="1.10998553" ry="1.04376635"></ellipse>
                <ellipse id="Oval" cx="14.6650305" cy="16.8756062" rx="1.10998553" ry="1.04376635"></ellipse>
                <ellipse id="Oval" cx="7.45012457" cy="25.225737" rx="1.10998553" ry="1.04376635"></ellipse>
                <ellipse id="Oval" cx="16.3300088" cy="26.7913865" rx="2.21997106" ry="2.08753271"></ellipse>
                <path d="M21.8588467,21.0538029 L17.7302555,13.2516494 C17.5389549,12.8899048 17.439592,12.4913315 17.4399943,12.087328 L17.4399943,1.21911087 L8.56011009,1.21911087 L8.56011009,12.0878499 C8.56016899,12.4911482 8.46081517,12.8889705 8.26984888,13.2500838 L4.14236769,21.0538029" id="Path"></path>
                <path d="M24.6904198,26.4036273 L21.8588467,21.0538029 L4.14236769,21.0538029 L1.3119046,26.405193 C0.859195864,27.2005153 0.694739474,28.1129959 0.843490706,29.0041712 C1.22981757,31.0672395 3.15027438,32.5623458 5.37778159,32.534189 L20.608448,32.534189 C22.9810243,32.5630946 24.9790765,30.8730128 25.1987932,28.6513782 C25.2582031,27.872035 25.0819604,27.0927853 24.6904198,26.4036273 Z" id="Path"></path>
                <path d="M6.8951318,1.21911087 L19.1049726,1.21911087" id="Path"></path>
            </g>
        </g>
    </g>
</svg>